<?xml version="1.0" encoding="utf-8"?>
<!-- Svg Vector Icons : http://www.onlinewebfonts.com/icon -->
<!DOCTYPE svg PUBLIC "-//W3C//DTD SVG 1.1//EN" "http://www.w3.org/Graphics/SVG/1.1/DTD/svg11.dtd">
<svg version="1.1" xmlns="http://www.w3.org/2000/svg" xmlns:xlink="http://www.w3.org/1999/xlink" x="0px" y="0px" viewBox="0 0 1000 1000" enable-background="new 0 0 1000 1000" xml:space="preserve">
<metadata> Svg Vector Icons : http://www.onlinewebfonts.com/icon </metadata>
<g><path d="M959.4,469.4c-16.9,0-30.6,13.7-30.6,30.6c0,236.4-192.3,428.7-428.7,428.7S71.3,736.4,71.3,500C71.3,263.6,263.6,71.3,500,71.3c93.7,0,182.7,29.7,257.4,85.8c13.5,10.2,32.7,7.4,42.9-6.1c10.2-13.5,7.4-32.7-6.1-42.8C708.8,43.9,607.1,10,500,10C229.8,10,10,229.8,10,500c0,270.2,219.8,490,490,490s490-219.8,490-490C990,483.1,976.3,469.4,959.4,469.4z"/><path d="M215.4,447.7c-12-12-31.3-12-43.3,0c-12,12-12,31.3,0,43.3l245,245c6,6,13.8,9,21.7,9c7.8,0,15.7-3,21.7-9L981,215.4c12-12,12-31.3,0-43.3c-12-12-31.3-12-43.3,0l-499,499L215.4,447.7z"/></g>
</svg>